# xmcd
#
# Track frame offsets:
#	150
#	20378
#	41480
#	56575
#	72199
#	81195
#	92213
#	102712
#	110433
#	121676
#	134933
#	147407
#	155947
#	164481
#	191811
#	203732
#	215091
#	224426
#	233835
#	238574
#	251647
#	265267
#	273983
#	283616
#	291585
#
# Disc length: 4055 seconds
#
# Revision: 0
# Processed by: cddbd v1.5.2PL0 Copyright (c) Steve Scherf et al.
# Submitted via: audiograbber 1.83.01
#
DISCID=970fd519
DTITLE=CÁSSIO BRUNO - AO VIVO
DYEAR=1900
DGENRE=
TTITLE0=EMOÇÕES
TTITLE1=ALÉM DO HORIZONTE
TTITLE2=AS CURVAS DA ESTRADA DE SANTOS
TTITLE3=EU TE AMO, TE AMO, TE AMO
TTITLE4=NÃO ME DIGA ADEUS
TTITLE5=FECHE OS OLHOS
TTITLE6=COMO NUM SONHO
TTITLE7=MEU BEM QUERER
TTITLE8=QUANDO A CIDADE DORME
TTITLE9=MAR DE ROSAS
TTITLE10=VEM ME AJUDAR
TTITLE11=CÂNDIDA
TTITLE12=AGORA EU SEI
TTITLE13=SONHAR CONTIGO-SONHEI COM VOCÊ-DUAS FLORES-RELÓGIO-TÃO SOMENTE UMA VEZ
TTITLE14=QUE QUERES TU DE MIM
TTITLE15=SENTIMENTAL DENAIS
TTITLE16=TORTURA DE AMOR
TTITLE17=MEU PRIMEIRO AMOR
TTITLE18=PRA VOCÊ GOSTAR
TTITLE19=CORAÇÃO DE PAPEL
TTITLE20=TENHO UM AMOR MELHOR QUE O SEU
TTITLE21=SE AINDA EXISTE AMOR
TTITLE22=DIANA
TTITLE23=OH CAROL
TTITLE24=WHISKY À GO GO
EXTD=
EXTT0=
EXTT1=
EXTT2=
EXTT3=
EXTT4=
EXTT5=
EXTT6=
EXTT7=
EXTT8=
EXTT9=
EXTT10=
EXTT11=
EXTT12=
EXTT13=
EXTT14=
EXTT15=
EXTT16=
EXTT17=
EXTT18=
EXTT19=
EXTT20=
EXTT21=
EXTT22=
EXTT23=
EXTT24=
PLAYORDER=
